<?xml version="1.0" encoding="UTF-8" standalone="no" ?>
<!DOCTYPE svg PUBLIC "-//W3C//DTD SVG 1.1//EN" "http://www.w3.org/Graphics/SVG/1.1/DTD/svg11.dtd">
<svg xmlns="http://www.w3.org/2000/svg" xmlns:xlink="http://www.w3.org/1999/xlink" version="1.1" width="1280" height="1024" viewBox="0 0 1280 1024" xml:space="preserve">
<desc>Created with Fabric.js 5.3.0</desc>
<defs>
</defs>
<g transform="matrix(1 0 0 1 640 512)" id="background-logo"  >
<rect style="stroke: none; stroke-width: 0; stroke-dasharray: none; stroke-linecap: butt; stroke-dashoffset: 0; stroke-linejoin: miter; stroke-miterlimit: 4; fill: rgb(255,255,255); fill-opacity: 0; fill-rule: nonzero; opacity: 1;"  paint-order="stroke"  x="-640" y="-512" rx="0" ry="0" width="1280" height="1024" />
</g>
<g transform="matrix(4.774220587839269 0 0 4.774220587839269 639.9999999999999 492.2652530248763)" id="logo-logo"  >
<g style=""  paint-order="stroke"   >
		<g transform="matrix(0.8921268993714967 0 0 0.8921268993714967 0 0)"  >
<g style=""  paint-order="stroke"   >
		<g transform="matrix(1 0 0 1 0 0)"  >
<path style="stroke: none; stroke-width: 1; stroke-dasharray: none; stroke-linecap: butt; stroke-dashoffset: 0; stroke-linejoin: miter; stroke-miterlimit: 4; fill: rgb(255,190,88); fill-rule: nonzero; opacity: 1;"  paint-order="stroke"  transform=" translate(-100, -99.83500000000001)" d="M 34.32 182.84 L 48.9 182.84 L 48.9 199.67000000000002 L 67.06 199.67000000000002 L 67.06 183.15 L 82.46000000000001 183.15 L 82.46000000000001 199.67000000000002 L 100.61000000000001 199.67000000000002 L 100.61000000000001 183.15 L 115.72000000000001 183.15 L 115.72000000000001 199.67000000000002 L 133.87 199.67000000000002 L 133.87 183.15 L 148.73000000000002 183.15 L 148.73000000000002 199.67000000000002 L 166.89000000000001 199.67000000000002 L 166.89000000000001 183.15 L 181.89000000000001 183.15 L 181.89000000000001 199.67000000000002 L 200 199.67000000000002 L 200 182 L 183.1 182 L 183.1 167.09 L 200 167.09 L 200 149.09 L 183.1 149.09 L 183.1 133.69 L 200 133.69 L 200 115.69 L 183.1 115.69 L 183.1 100.69 L 200 100.69 L 200 82.69 L 183.12 82.69 L 183.12 67.69 L 200 67.69 L 200 49.69 L 183.16 49.69 L 183.16 34.18 L 200 34.18 L 200 16.18 L 183.16 16.18 L 183.16 0.05 L 166.31 0.05 L 166.31 16.150000000000002 L 150.11 16.150000000000002 L 150.11 0 L 133.26 0 L 133.26 16.1 L 116.85999999999999 16.1 L 116.85999999999999 0 L 100 0 L 100 16.1 L 83.93 16.1 L 83.93 0 L 67.08 0 L 67.08 16.1 L 50.57 16.1 L 50.57 0 L 33.72 0 L 33.72 16.1 L 16.88 16.1 L 16.88 0 L 0 0 L 0 16.73 L 16.21 16.73 L 16.21 33.47 L 0 33.47 L 0 50.2 L 16.19 50.2 L 16.19 66.64 L 0 66.64 L 0 83.37 L 16.16 83.37 L 16.16 99.65 L 0 99.65 L 0 116.39 L 16.16 116.39 L 16.16 132.67000000000002 L 0 132.67000000000002 L 0 149.4 L 16.16 149.4 L 16.16 166.1 L 0 166.1 L 0 182.84 L 16.16 182.84 L 16.16 199.67000000000002 L 34.32 199.67000000000002 Z M 167 16.78 L 182 16.78 L 182 33.52 L 167 33.52 Z M 167 50.25 L 182 50.25 L 182 67 L 167 67 Z M 167 83.68 L 182 83.68 L 182 100 L 167 100 Z M 167 116.68 L 182 116.68 L 182 133 L 167 133 Z M 167 149.68 L 182 149.68 L 182 166.38 L 167 166.38 Z M 150.11 34.18 L 166.31 34.18 L 166.31 49.59 L 150.11 49.59 Z M 149.43 67.62 L 166.28 67.62 L 166.28 82.62 L 149.43 82.62 Z M 149.43 100.62 L 166.28 100.62 L 166.28 115.62 L 149.4 115.62 Z M 149.43 133.62 L 166.28 133.62 L 166.28 149.02 L 149.4 149.02 Z M 149.43 167.06 L 166.28 167.06 L 166.28 182 L 149.4 182 Z M 133.89 16.75 L 148.79 16.75 L 148.79 33.48 L 133.89 33.48 Z M 133.89 50.22 L 148.76 50.22 L 148.76 67 L 133.89 67 Z M 133.89 83.68 L 148.75 83.68 L 148.75 100 L 133.87 100 Z M 133.89 116.68 L 148.75 116.68 L 148.75 133 L 133.87 133 Z M 133.89 149.68 L 148.75 149.68 L 148.75 166.38 L 133.87 166.38 Z M 116.88999999999999 34.110000000000014 L 133.29 34.110000000000014 L 133.29 49.27 L 116.88999999999999 49.27 Z M 116.88999999999999 67.26000000000002 L 132.61999999999998 67.26000000000002 L 132.61999999999998 82.26000000000002 L 116.85 82.26000000000002 Z M 116.88999999999999 100.26000000000002 L 132.63 100.26000000000002 L 132.63 115.26000000000002 L 116.82 115.26000000000002 Z M 116.88999999999999 133.26000000000002 L 132.63 133.26000000000002 L 132.63 148.67000000000002 L 116.82 148.67000000000002 Z M 116.88999999999999 166.70000000000002 L 132.63 166.70000000000002 L 132.63 181.58 L 116.82 181.58 Z M 100.71999999999998 16.700000000000017 L 115.80999999999999 16.700000000000017 L 115.80999999999999 33.48 L 100.65 33.48 Z M 100.71999999999998 50.170000000000016 L 115.81999999999998 50.170000000000016 L 115.81999999999998 67 L 100.71999999999998 67 Z M 100.71999999999998 83.63000000000002 L 115.82999999999998 83.63000000000002 L 115.82999999999998 100 L 100.61 100 Z M 100.71999999999998 116.63000000000002 L 115.82999999999998 116.63000000000002 L 115.82999999999998 133 L 100.61 133 Z M 100.71999999999998 149.63000000000002 L 115.82999999999998 149.63000000000002 L 115.82999999999998 166.33 L 100.61 166.33 Z M 82.57 166.33 L 67.06 166.33 L 67.06 149.63000000000002 L 82.46000000000001 149.63000000000002 Z M 82.57 132.9 L 67.06 132.9 L 67.06 116.7 L 82.46000000000001 116.7 Z M 82.57 99.9 L 67.06 99.9 L 67.06 83.68 L 82.46000000000001 83.68 Z M 84.03999999999999 34.08000000000001 L 100 34.08000000000001 L 100 49.59 L 83.93 49.59 Z M 83.25999999999999 67.55000000000001 L 100 67.55000000000001 L 100 82.55000000000001 L 83.15 82.55000000000001 Z M 83.25999999999999 100.55000000000001 L 100 100.55000000000001 L 100 115.55000000000001 L 83.13 115.55000000000001 Z M 83.25999999999999 133.55 L 100 133.55 L 100 148.95000000000002 L 83.13 148.95000000000002 Z M 83.25999999999999 166.99 L 100 166.99 L 100 182 L 83.13 182 Z M 67.72 16.75 L 82.5 16.75 L 82.5 33.48 L 67.72 33.48 Z M 67.08 50.22 L 82.48 50.22 L 82.48 67 L 67.08 67 Z M 50.57 34.15 L 67.08 34.15 L 67.08 49.59 L 50.57 49.59 Z M 50.57 67.62 L 66.31 67.62 L 66.31 82.62 L 50.55 82.62 Z M 50.57 100.62 L 66.28 100.62 L 66.28 115.62 L 50.53 115.62 Z M 50.57 133.62 L 66.28 133.62 L 66.28 149.02 L 50.53 149.02 Z M 50.57 167.06 L 66.28 167.06 L 66.28 182 L 50.53 182 Z M 34.36 16.73 L 49.56 16.73 L 49.56 33.47 L 34.36 33.47 Z M 34.36 50.2 L 48.93 50.2 L 48.93 66.64 L 34.34 66.64 Z M 34.36 83.37 L 48.9 83.37 L 48.9 99.65 L 34.32 99.65 Z M 34.36 116.37 L 48.9 116.37 L 48.9 132.65 L 34.32 132.65 Z M 34.36 149.37 L 48.9 149.37 L 48.9 166.07 L 34.32 166.07 Z M 33.72 181.62 L 16.84 181.62 L 16.84 166.77 L 33.68 166.77 Z M 33.72 148.71 L 16.84 148.71 L 16.84 133.33 L 33.68 133.33 Z M 33.72 115.27000000000001 L 16.84 115.27000000000001 L 16.84 100.27000000000001 L 33.68 100.27000000000001 Z M 33.72 82.27000000000001 L 16.86 82.27000000000001 L 16.86 67.27000000000001 L 33.71 67.27000000000001 Z M 33.72 49.27000000000001 L 16.88 49.27000000000001 L 16.88 34.13 L 33.72 34.13 Z" stroke-linecap="round" />
</g>
</g>
</g>
		<g transform="matrix(0.6040051769107776 0 0 0.6040051769107776 0 0)"  >
<g style=""  paint-order="stroke"   >
		<g transform="matrix(1 0 0 1 0 0)"  >
<rect style="stroke: none; stroke-width: 1; stroke-dasharray: none; stroke-linecap: butt; stroke-dashoffset: 0; stroke-linejoin: miter; stroke-miterlimit: 4; fill: rgb(255,190,88); fill-rule: nonzero; opacity: 1;"  paint-order="stroke"  x="-100" y="-100" rx="0" ry="0" width="200" height="200" />
</g>
</g>
</g>
</g>
</g>
<g transform="matrix(1.9211538461538462 0 0 1.9211538461538462 636.25375 501.95428653846153)" id="tagline-81184f7b-f5fb-4edc-871b-34431050d097-logo"  >
<g style=""  paint-order="stroke"   >
		<g transform="matrix(1 0 0 1 0 0)" id="tagline-81184f7b-f5fb-4edc-871b-34431050d097-logo-path-0"  >
<path style="stroke: rgb(255,255,255); stroke-width: 0; stroke-dasharray: none; stroke-linecap: butt; stroke-dashoffset: 0; stroke-linejoin: miter; stroke-miterlimit: 4; fill: rgb(26,91,105); fill-rule: nonzero; opacity: 1;"  paint-order="stroke"  transform=" translate(-77.55, 52.35)" d="M 4.05 -99.6 L 4.05 -99.6 Q 4.05 -101.85 5.1 -103.42 Q 6.15 -105 8.1 -105 L 8.1 -105 L 64.05 -105 Q 71.55 -105 71.55 -101.25 L 71.55 -101.25 Q 71.55 -99.9 70.5 -97.05 L 70.5 -97.05 L 36.45 -4.2 Q 34.95 0 30.9 0 L 30.9 0 Q 28.65 0 27 -1.57 Q 25.35 -3.15 25.35 -5.4 L 25.35 -5.4 Q 25.35 -6.6 25.8 -7.65 L 25.8 -7.65 L 57.45 -93.9 L 8.1 -93.9 Q 4.05 -93.9 4.05 -99.6 Z M 81.15 -65.25 L 81.15 -65.25 Q 81.15 -80.55 91.05 -93 Q 100.95 -105.45 116.55 -105.45 L 116.55 -105.45 Q 133.05 -105.45 142.05 -91.72 Q 151.05 -78 151.05 -55.65 L 151.05 -55.65 Q 151.05 -26.25 141.75 -12.75 Q 132.45 0.75 113.1 0.75 L 113.1 0.75 Q 102 0.75 94.12 -4.72 Q 86.25 -10.2 86.1 -20.25 L 86.1 -20.25 Q 86.1 -22.65 87.67 -23.93 Q 89.25 -25.2 91.5 -25.2 L 91.5 -25.2 Q 93.9 -25.2 95.7 -23.85 Q 97.5 -22.5 97.5 -20.4 L 97.5 -20.4 Q 97.5 -15.3 102.22 -12.82 Q 106.95 -10.35 113.85 -10.35 L 113.85 -10.35 Q 120.15 -10.35 125.02 -13.2 Q 129.9 -16.05 132.67 -20.47 Q 135.45 -24.9 137.17 -30.9 Q 138.9 -36.9 139.5 -42.38 Q 140.1 -47.85 140.1 -53.7 L 140.1 -53.7 Q 140.1 -55.8 140.17 -59.1 Q 140.25 -62.4 140.25 -63.6 L 140.25 -63.6 Q 129.15 -40.05 107.7 -40.05 L 107.7 -40.05 Q 96.75 -40.05 88.95 -46.95 Q 81.15 -53.85 81.15 -65.25 Z M 92.25 -65.4 L 92.25 -65.4 Q 92.25 -59.7 96 -55.42 Q 99.75 -51.15 106.8 -51.15 L 106.8 -51.15 Q 117.75 -51.15 126 -60.3 Q 134.25 -69.45 134.25 -79.35 L 134.25 -79.35 Q 134.25 -85.95 129.97 -90.15 Q 125.7 -94.35 117.6 -94.35 L 117.6 -94.35 Q 107.85 -94.35 100.05 -86.77 Q 92.25 -79.2 92.25 -65.4 Z" stroke-linecap="round" />
</g>
</g>
</g>
</svg>